<svg class="md:w-[394px] w-[250px]" viewBox="0 0 394 397" fill="none" xmlns="http://www.w3.org/2000/svg"><circle cx="197" cy="200" r="137.6" fill="#12312B"></circle><path d="M159.432 207.908L186.854 252.841L187.005 253.087L187.283 253.159L231.717 264.803L248.856 300.311L248.917 300.437L249.021 300.529L263.882 313.997L232.172 318.285H52.0664L46.749 302.979L52.1992 283.968L69.4238 264.672L69.4229 264.671L135.5 192.92L159.432 207.908Z" fill="white" stroke="black" stroke-width="1.42928"></path><path d="M140.669 194.656C144.025 195.296 147.132 196.872 149.631 199.202L151.396 200.85L151.447 200.897L151.507 200.934L187.347 223.242L196.071 234.512L196.144 234.605L196.242 234.67L261.169 277.588L261.191 277.603L261.216 277.616L311.062 305.343C315.033 307.551 317.801 311.428 318.602 315.9L323.019 340.565L316.2 338.704L232.692 264.353L232.565 264.239L232.4 264.195L188.291 252.53L160.562 207.654L160.474 207.512L160.331 207.423L139.387 194.412L140.669 194.656Z" fill="black" stroke="black" stroke-width="1.42928"></path><path d="M251.431 194.908L278.854 239.841L279.005 240.087L279.283 240.159L323.695 251.798L331.785 270.761V283.199L331.888 283.37L344.324 303.938L119.695 334.64L122.454 320.842L144.167 271.003L161.423 251.671L227.499 179.92L251.431 194.908Z" fill="white" stroke="black" stroke-width="1.42928"></path><path d="M141.011 260.847C142.66 257.874 145.278 255.556 148.43 254.28L164.358 247.833L149.501 264.175L143.559 271.108L118.799 335.485H107L115.828 306.268L141.011 260.847Z" fill="black"></path><path d="M232.669 181.656C236.025 182.296 239.132 183.872 241.631 186.202L243.396 187.85L243.447 187.897L243.507 187.934L279.347 210.242L288.071 221.512L288.144 221.605L288.242 221.67L353.055 264.512L353.191 264.708C355.257 267.667 353.174 271.715 349.59 271.781L342.878 269.863L324.728 251.386L324.59 251.246L324.4 251.195L280.291 239.53L252.562 194.654L252.474 194.512L252.331 194.423L231.387 181.412L232.669 181.656Z" fill="black" stroke="black" stroke-width="1.42928"></path><path d="M197 3C305.8 3 394 91.1999 394 200C394 308.8 305.8 397 197 397C88.1999 397 0 308.8 0 200C0 91.1999 88.1999 3 197 3ZM197 73.9199C127.368 73.9199 70.9199 130.368 70.9199 200C70.9199 269.632 127.368 326.08 197 326.08C266.632 326.08 323.08 269.632 323.08 200C323.08 130.368 266.632 73.92 197 73.9199Z" fill="#12312B"></path><circle cx="197" cy="200" r="122.08" stroke="white" stroke-width="8"></circle><path d="M359.527 229.535C359.477 229.706 357.472 230.001 356.135 230C354.804 229.999 352.808 229.706 352.759 229.535C352.71 229.363 353.942 219.098 353.843 214.026C353.842 213.928 353.744 213.928 353.72 213.953C352.788 214.908 351.971 215.79 351.281 215.888C350.591 215.986 345.662 214.124 345.712 213.708C345.761 213.291 350.812 211.527 354.016 209.935C354.065 208.93 354.09 208.489 354.065 208.367C354.041 208.244 353.917 208.293 353.917 208.293C353.917 208.293 345.909 211.625 345.096 211.748C344.282 211.87 343.967 211.664 343.543 211.331C342.607 210.596 340.66 208.139 340.537 207.901C340.414 207.663 340.611 207.632 340.611 207.632L354.213 204.863C354.213 204.863 354.262 203.442 354.262 203.32C354.262 203.197 354.114 203.222 354.114 203.222C354.114 203.222 342.927 205.206 342.508 205.255C342.089 205.304 341.732 205.2 341.498 205.084C341.35 205.01 341.116 204.747 340.931 204.471C340.192 203.369 339.872 202.364 339.034 200.698C338.999 200.63 338.979 200.458 339.034 200.404C339.132 200.306 339.33 200.298 339.551 200.282C341.227 200.159 350.246 199.669 354.361 199.4C354.415 199.396 354.459 199.356 354.459 199.302C354.459 198.959 354.484 198.126 354.484 197.905C354.484 197.857 354.434 197.83 354.386 197.832C350.295 197.979 346.846 198.15 341.818 198.15C341.375 198.15 341.192 197.949 341.005 197.709C340.833 197.489 340.726 197.24 340.635 196.901C340.241 195.431 340.044 193.985 339.945 192.932C339.934 192.804 340.114 192.764 340.241 192.785C344.381 193.471 349.802 194.108 354.484 194.622C354.553 194.63 354.632 194.593 354.632 194.524C354.632 194.157 354.681 193.733 354.681 193.226C354.681 193.128 354.553 193.119 354.459 193.103C350.443 192.442 346.944 192.148 343.321 191.388C342.868 191.293 342.616 190.879 342.508 190.531C342.41 190.212 342.262 188.571 342.163 186.929C342.157 186.828 342.262 186.73 342.36 186.758C346.402 187.885 350.566 189.061 354.607 190.065C354.699 190.088 354.829 190.062 354.829 189.967C354.829 189.673 354.829 189.183 354.854 188.791C354.861 188.683 354.74 188.65 354.634 188.621L354.632 188.62C351.281 187.689 348.94 187.272 345.662 186.096C345.19 185.927 344.95 185.564 344.898 185.067C344.8 184.112 344.701 182.936 344.8 181.956C344.81 181.853 344.951 181.817 345.046 181.858C347.855 183.083 351.133 184.479 354.829 185.827C354.894 185.851 354.977 185.798 354.977 185.729C354.977 185.435 355.002 184.967 355.002 184.479C355.002 184.381 351.207 182.96 348.077 181.613C347.669 181.437 347.45 181.165 347.363 180.731C347.289 180.363 347.279 179.895 347.289 179.359C347.3 178.773 347.289 178.648 347.437 177.864C347.449 177.796 347.548 177.782 347.609 177.815C349.482 178.844 352.34 180.437 354.952 181.735C355.029 181.774 355.143 181.723 355.149 181.637C355.174 181.319 355.182 180.607 355.149 180.412C355.125 180.265 352.094 178.918 350.467 177.864C350.088 177.619 349.794 177.406 349.753 176.958C349.704 176.419 349.742 176.016 349.778 175.414C349.802 174.998 349.851 174.483 350.024 174.287C350.068 174.237 350.142 174.248 350.196 174.287C351.995 175.61 353.914 177.14 355.125 177.742C355.174 177.766 355.281 177.725 355.297 177.644C355.322 177.521 355.358 176.737 355.322 176.541C355.29 176.37 353.203 175.047 352.316 174.336C352.155 174.208 352.083 174.076 352.069 173.871C352.045 173.503 352.143 172.842 352.217 172.45C352.291 172.058 352.365 171.837 352.463 171.715C352.562 171.592 352.611 171.69 352.661 171.739C353.233 172.309 353.597 172.661 354.164 173.16C354.634 173.575 355.322 174.238 355.396 174.189C355.47 174.14 355.297 172.744 355.297 171.813C355.297 171.357 355.28 171.065 355.494 170.661C355.657 170.356 356.002 170 356.151 170C356.323 170 356.629 170.356 356.791 170.661C357.006 171.065 356.988 171.357 356.988 171.813C356.988 172.744 356.816 174.14 356.89 174.189C356.964 174.238 357.652 173.575 358.122 173.16C358.689 172.661 359.052 172.309 359.625 171.739C359.674 171.69 359.724 171.592 359.822 171.715C359.921 171.837 359.995 172.058 360.069 172.45C360.143 172.842 360.241 173.503 360.217 173.871C360.203 174.076 360.131 174.208 359.97 174.336C359.083 175.047 356.996 176.37 356.964 176.541C356.927 176.737 356.964 177.521 356.988 177.644C357.005 177.725 357.112 177.766 357.161 177.742C358.371 177.14 360.29 175.61 362.089 174.287C362.143 174.248 362.217 174.237 362.262 174.287C362.434 174.483 362.484 174.998 362.508 175.414C362.544 176.016 362.582 176.419 362.533 176.958C362.492 177.406 362.197 177.619 361.818 177.864C360.192 178.918 357.161 180.265 357.136 180.412C357.104 180.607 357.112 181.319 357.136 181.637C357.143 181.723 357.256 181.774 357.333 181.735C359.945 180.437 362.804 178.844 364.677 177.815C364.738 177.782 364.836 177.796 364.849 177.864C364.997 178.648 364.986 178.773 364.997 179.359C365.007 179.895 364.997 180.363 364.923 180.731C364.836 181.165 364.617 181.437 364.208 181.613C361.079 182.96 357.284 184.381 357.284 184.479C357.284 184.967 357.309 185.435 357.309 185.729C357.309 185.798 357.391 185.851 357.457 185.827C361.153 184.479 364.43 183.083 367.239 181.858C367.334 181.817 367.476 181.853 367.486 181.956C367.584 182.936 367.486 184.112 367.387 185.067C367.336 185.564 367.096 185.927 366.623 186.096C363.346 187.272 361.005 187.689 357.654 188.62L357.651 188.621C357.546 188.65 357.425 188.683 357.432 188.791C357.457 189.183 357.457 189.673 357.457 189.967C357.457 190.062 357.586 190.088 357.678 190.065C361.72 189.061 365.884 187.885 369.925 186.758C370.024 186.73 370.129 186.828 370.122 186.929C370.024 188.571 369.876 190.212 369.777 190.531C369.67 190.879 369.417 191.293 368.964 191.388C365.342 192.148 361.843 192.442 357.826 193.103C357.733 193.119 357.604 193.128 357.604 193.226C357.604 193.733 357.654 194.157 357.654 194.524C357.654 194.593 357.733 194.63 357.802 194.622C362.484 194.108 367.905 193.471 372.045 192.785C372.172 192.764 372.352 192.804 372.34 192.932C372.242 193.985 372.045 195.431 371.65 196.901C371.559 197.24 371.453 197.489 371.281 197.709C371.093 197.949 370.911 198.15 370.467 198.15C365.44 198.15 361.991 197.979 357.9 197.832C357.852 197.83 357.802 197.857 357.802 197.905C357.802 198.126 357.826 198.959 357.826 199.302C357.826 199.356 357.871 199.396 357.925 199.4C362.04 199.669 371.059 200.159 372.735 200.282C372.956 200.298 373.153 200.306 373.252 200.404C373.306 200.458 373.286 200.63 373.252 200.698C372.414 202.364 372.094 203.369 371.355 204.471C371.17 204.747 370.936 205.01 370.788 205.084C370.554 205.2 370.196 205.304 369.777 205.255C369.359 205.206 358.171 203.222 358.171 203.222C358.171 203.222 358.023 203.197 358.023 203.32C358.023 203.442 358.073 204.863 358.073 204.863L371.675 207.632C371.675 207.632 371.872 207.663 371.749 207.901C371.626 208.139 369.679 210.596 368.743 211.331C368.318 211.664 368.003 211.87 367.19 211.748C366.377 211.625 358.368 208.293 358.368 208.293C358.368 208.293 358.245 208.244 358.221 208.367C358.196 208.489 358.221 208.93 358.27 209.935C361.473 211.527 366.525 213.291 366.574 213.708C366.623 214.124 361.695 215.986 361.005 215.888C360.315 215.79 359.497 214.908 358.566 213.953C358.541 213.928 358.444 213.928 358.442 214.026C358.344 219.098 359.576 229.363 359.527 229.535Z" fill="white"></path><path d="M39.5265 229.535C39.4773 229.706 37.4721 230.001 36.1351 230C34.8041 229.999 32.8085 229.706 32.7592 229.535C32.7099 229.363 33.942 219.098 33.8434 214.026C33.8415 213.928 33.7445 213.928 33.7202 213.953C32.7883 214.908 31.9706 215.79 31.2807 215.888C30.5907 215.986 25.6624 214.124 25.7116 213.708C25.7609 213.291 30.8125 211.527 34.0159 209.935C34.0652 208.93 34.0898 208.489 34.0652 208.367C34.0405 208.244 33.9173 208.293 33.9173 208.293C33.9173 208.293 25.9088 211.625 25.0956 211.748C24.2824 211.87 23.9673 211.664 23.5432 211.331C22.6068 210.596 20.6601 208.139 20.5369 207.901C20.4137 207.663 20.6108 207.632 20.6108 207.632L34.213 204.863C34.213 204.863 34.2623 203.442 34.2623 203.32C34.2623 203.197 34.1145 203.222 34.1145 203.222C34.1145 203.222 22.9271 205.206 22.5082 205.255C22.0893 205.304 21.7322 205.2 21.4979 205.084C21.3501 205.01 21.1161 204.747 20.9311 204.471C20.1919 203.369 19.8716 202.364 19.0337 200.698C18.9993 200.63 18.9793 200.458 19.0337 200.404C19.1323 200.306 19.3297 200.298 19.5512 200.282C21.2268 200.159 30.2457 199.669 34.3609 199.4C34.4152 199.396 34.4594 199.356 34.4594 199.302C34.4594 198.959 34.4841 198.126 34.4841 197.905C34.4841 197.857 34.4336 197.83 34.3855 197.832C30.295 197.979 26.8457 198.15 21.8183 198.15C21.3747 198.15 21.1924 197.949 21.0051 197.709C20.8326 197.489 20.7264 197.24 20.6354 196.901C20.2412 195.431 20.044 193.985 19.9455 192.932C19.9335 192.804 20.1138 192.764 20.2412 192.785C24.381 193.471 29.8022 194.108 34.4841 194.622C34.5531 194.63 34.6319 194.593 34.6319 194.524C34.6319 194.157 34.6812 193.733 34.6812 193.226C34.6812 193.128 34.553 193.119 34.4594 193.103C30.4428 192.442 26.9437 192.148 23.3214 191.388C22.8684 191.293 22.6159 190.879 22.5082 190.531C22.4097 190.212 22.2618 188.571 22.1632 186.929C22.1571 186.828 22.2619 186.73 22.3604 186.758C26.4016 187.885 30.5661 189.061 34.6073 190.065C34.6992 190.088 34.8291 190.062 34.8291 189.967C34.8291 189.673 34.8291 189.183 34.8537 188.791C34.8605 188.683 34.7395 188.65 34.6344 188.621L34.6319 188.62C31.2807 187.689 28.9397 187.272 25.6624 186.096C25.1898 185.927 24.9497 185.564 24.8985 185.067C24.7999 184.112 24.7013 182.936 24.7999 181.956C24.8102 181.853 24.9514 181.817 25.0463 181.858C27.8555 183.083 31.1328 184.479 34.8291 185.827C34.8942 185.851 34.9769 185.798 34.9769 185.729C34.9769 185.435 35.0016 184.967 35.0016 184.479C35.0016 184.381 31.2067 182.96 28.0772 181.613C27.669 181.437 27.4499 181.165 27.3626 180.731C27.2887 180.363 27.2785 179.895 27.2887 179.359C27.2999 178.773 27.2887 178.648 27.4366 177.864C27.4495 177.796 27.5477 177.782 27.6091 177.815C29.4818 178.844 32.3403 180.437 34.9523 181.735C35.0293 181.774 35.1428 181.723 35.1494 181.637C35.1741 181.319 35.1821 180.607 35.1494 180.412C35.1248 180.265 32.0938 178.918 30.4675 177.864C30.0884 177.619 29.7938 177.406 29.7529 176.958C29.7036 176.419 29.7419 176.016 29.7775 175.414C29.8022 174.998 29.8514 174.483 30.0239 174.287C30.0683 174.237 30.1423 174.248 30.1964 174.287C31.9953 175.61 33.9144 177.14 35.1248 177.742C35.1741 177.766 35.281 177.725 35.2973 177.644C35.3219 177.521 35.3582 176.737 35.3219 176.541C35.2901 176.37 33.2027 175.047 32.3156 174.336C32.1547 174.208 32.0829 174.076 32.0692 173.871C32.0446 173.503 32.1431 172.842 32.2171 172.45C32.291 172.058 32.3649 171.837 32.4635 171.715C32.562 171.592 32.6113 171.69 32.6606 171.739C33.2334 172.309 33.597 172.661 34.1637 173.16C34.6339 173.575 35.3219 174.238 35.3958 174.189C35.4698 174.14 35.2973 172.744 35.2973 171.813C35.2973 171.357 35.2797 171.065 35.4944 170.661C35.6571 170.356 36.0016 170 36.1506 170C36.3231 170 36.6286 170.356 36.7913 170.661C37.0061 171.065 36.9884 171.357 36.9884 171.813C36.9884 172.744 36.816 174.14 36.8899 174.189C36.9638 174.238 37.6518 173.575 38.122 173.16C38.6887 172.661 39.0523 172.309 39.6251 171.739C39.6744 171.69 39.7237 171.592 39.8222 171.715C39.9208 171.837 39.9947 172.058 40.0687 172.45C40.1426 172.842 40.2412 173.503 40.2165 173.871C40.2028 174.076 40.131 174.208 39.9701 174.336C39.083 175.047 36.9956 176.37 36.9638 176.541C36.9275 176.737 36.9638 177.521 36.9884 177.644C37.0047 177.725 37.1117 177.766 37.1609 177.742C38.3713 177.14 40.2904 175.61 42.0893 174.287C42.1434 174.248 42.2174 174.237 42.2618 174.287C42.4343 174.483 42.4835 174.998 42.5082 175.414C42.5438 176.016 42.5821 176.419 42.5328 176.958C42.4919 177.406 42.1973 177.619 41.8182 177.864C40.1919 178.918 37.1609 180.265 37.1363 180.412C37.1036 180.607 37.1117 181.319 37.1363 181.637C37.1429 181.723 37.2564 181.774 37.3334 181.735C39.9455 180.437 42.8039 178.844 44.6767 177.815C44.738 177.782 44.8362 177.796 44.8492 177.864C44.997 178.648 44.9859 178.773 44.997 179.359C45.0072 179.895 44.997 180.363 44.9231 180.731C44.8358 181.165 44.6167 181.437 44.2085 181.613C41.079 182.96 37.2841 184.381 37.2841 184.479C37.2841 184.967 37.3088 185.435 37.3088 185.729C37.3088 185.798 37.3915 185.851 37.4566 185.827C41.1529 184.479 44.4302 183.083 47.2394 181.858C47.3343 181.817 47.4755 181.853 47.4858 181.956C47.5844 182.936 47.4858 184.112 47.3873 185.067C47.336 185.564 47.0959 185.927 46.6234 186.096C43.346 187.272 41.005 187.689 37.6538 188.62L37.6513 188.621C37.5462 188.65 37.4252 188.683 37.432 188.791C37.4566 189.183 37.4566 189.673 37.4566 189.967C37.4566 190.062 37.5865 190.088 37.6784 190.065C41.7197 189.061 45.8841 187.885 49.9253 186.758C50.0238 186.73 50.1286 186.828 50.1225 186.929C50.0239 188.571 49.8761 190.212 49.7775 190.531C49.6698 190.879 49.4173 191.293 48.9643 191.388C45.342 192.148 41.8429 192.442 37.8263 193.103C37.7328 193.119 37.6045 193.128 37.6045 193.226C37.6045 193.733 37.6538 194.157 37.6538 194.524C37.6538 194.593 37.7327 194.63 37.8016 194.622C42.4835 194.108 47.9047 193.471 52.0445 192.785C52.1719 192.764 52.3522 192.804 52.3402 192.932C52.2417 193.985 52.0445 195.431 51.6503 196.901C51.5593 197.24 51.4531 197.489 51.2806 197.709C51.0933 197.949 50.911 198.15 50.4675 198.15C45.44 198.15 41.9907 197.979 37.9002 197.832C37.8521 197.83 37.8016 197.857 37.8016 197.905C37.8016 198.126 37.8263 198.959 37.8263 199.302C37.8263 199.356 37.8705 199.396 37.9248 199.4C42.04 199.669 51.0589 200.159 52.7345 200.282C52.956 200.298 53.1534 200.306 53.252 200.404C53.3064 200.458 53.2864 200.63 53.252 200.698C52.4142 202.364 52.0938 203.369 51.3546 204.471C51.1696 204.747 50.9357 205.01 50.7878 205.084C50.5535 205.2 50.1964 205.304 49.7775 205.255C49.3586 205.206 38.1712 203.222 38.1712 203.222C38.1712 203.222 38.0234 203.197 38.0234 203.32C38.0234 203.442 38.0727 204.863 38.0727 204.863L51.6749 207.632C51.6749 207.632 51.872 207.663 51.7488 207.901C51.6256 208.139 49.6789 210.596 48.7425 211.331C48.3184 211.664 48.0033 211.87 47.1901 211.748C46.3769 211.625 38.3684 208.293 38.3684 208.293C38.3684 208.293 38.2452 208.244 38.2205 208.367C38.1959 208.489 38.2205 208.93 38.2698 209.935C41.4732 211.527 46.5248 213.291 46.5741 213.708C46.6234 214.124 41.695 215.986 41.005 215.888C40.3151 215.79 39.4974 214.908 38.5655 213.953C38.5413 213.928 38.4442 213.928 38.4423 214.026C38.3437 219.098 39.5758 229.363 39.5265 229.535Z" fill="white"></path><path d="M124.19 143.566C123.854 143.566 123.518 143.356 123.182 142.936C122.858 142.516 122.558 141.85 122.282 140.938C122.006 140.026 121.784 138.838 121.616 137.374C121.46 135.898 121.382 134.104 121.382 131.992C121.382 130.816 121.436 129.898 121.544 129.238C121.652 128.566 121.796 128.074 121.976 127.762C122.168 127.45 122.384 127.252 122.624 127.168C122.864 127.084 123.11 127.042 123.362 127.042C123.686 127.042 123.962 127.162 124.19 127.402C124.43 127.642 124.55 127.972 124.55 128.392C124.55 128.764 124.424 129.226 124.172 129.778C124.1 130.366 124.052 130.894 124.028 131.362C124.016 131.818 124.01 132.304 124.01 132.82C124.01 133.636 124.022 134.47 124.046 135.322C124.082 136.162 124.13 136.972 124.19 137.752C124.25 138.52 124.316 139.204 124.388 139.804C124.688 139.072 125.024 138.262 125.396 137.374C125.768 136.486 126.14 135.592 126.512 134.692C126.896 133.792 127.256 132.946 127.592 132.154C127.94 131.35 128.234 130.666 128.474 130.102C128.726 129.538 128.894 129.154 128.978 128.95C129.278 128.23 129.602 127.714 129.95 127.402C130.298 127.09 130.652 126.934 131.012 126.934C131.3 126.934 131.546 127.024 131.75 127.204C131.954 127.384 132.056 127.726 132.056 128.23C132.056 128.326 131.96 128.608 131.768 129.076C131.588 129.544 131.336 130.144 131.012 130.876C130.7 131.596 130.346 132.4 129.95 133.288C129.566 134.164 129.17 135.07 128.762 136.006C128.318 137.026 127.874 137.992 127.43 138.904C126.998 139.816 126.578 140.62 126.17 141.316C125.774 142.012 125.402 142.558 125.054 142.954C124.718 143.362 124.43 143.566 124.19 143.566ZM135.785 142.594C134.933 142.594 134.249 142.294 133.733 141.694C133.217 141.082 132.959 140.266 132.959 139.246C132.959 138.922 133.001 138.592 133.085 138.256C133.181 137.92 133.295 137.608 133.427 137.32C133.355 137.212 133.295 137.074 133.247 136.906C133.211 136.726 133.193 136.516 133.193 136.276C133.193 135.496 133.331 134.782 133.607 134.134C133.883 133.474 134.255 132.904 134.723 132.424C135.191 131.944 135.707 131.572 136.271 131.308C136.835 131.044 137.405 130.912 137.981 130.912C138.965 130.912 139.769 131.242 140.393 131.902C141.029 132.562 141.347 133.588 141.347 134.98C141.347 135.676 141.239 136.384 141.023 137.104C140.807 137.824 140.513 138.514 140.141 139.174C139.781 139.822 139.361 140.404 138.881 140.92C138.413 141.436 137.909 141.844 137.369 142.144C136.841 142.444 136.313 142.594 135.785 142.594ZM135.497 136.51C135.557 136.642 135.587 136.798 135.587 136.978C135.587 137.158 135.551 137.344 135.479 137.536C135.407 137.728 135.335 137.986 135.263 138.31C135.191 138.622 135.155 139.072 135.155 139.66C135.155 139.816 135.173 139.948 135.209 140.056C135.257 140.152 135.359 140.2 135.515 140.2C135.923 140.2 136.307 140.068 136.667 139.804C137.039 139.54 137.369 139.192 137.657 138.76C137.957 138.328 138.209 137.848 138.413 137.32C138.629 136.78 138.791 136.234 138.899 135.682C139.019 135.118 139.079 134.596 139.079 134.116C139.079 133.804 139.019 133.588 138.899 133.468C138.779 133.348 138.569 133.288 138.269 133.288C137.861 133.288 137.441 133.42 137.009 133.684C136.589 133.936 136.235 134.284 135.947 134.728C135.659 135.16 135.515 135.652 135.515 136.204C135.515 136.312 135.509 136.414 135.497 136.51ZM143.845 141.64C143.557 141.64 143.347 141.544 143.215 141.352C143.083 141.148 143.029 140.896 143.053 140.596C143.065 140.428 143.197 140.188 143.449 139.876C143.701 139.552 144.031 139.174 144.439 138.742C144.847 138.298 145.297 137.824 145.789 137.32C146.293 136.804 146.809 136.282 147.337 135.754C146.677 134.782 146.179 134.002 145.843 133.414C145.519 132.826 145.345 132.364 145.321 132.028C145.297 131.656 145.357 131.356 145.501 131.128C145.657 130.9 145.903 130.786 146.239 130.786C146.431 130.786 146.629 130.876 146.833 131.056C147.049 131.236 147.319 131.566 147.643 132.046C147.979 132.526 148.423 133.204 148.975 134.08C149.803 133.252 150.481 132.58 151.009 132.064C151.549 131.536 151.981 131.128 152.305 130.84C152.641 130.552 152.899 130.354 153.079 130.246C153.271 130.138 153.433 130.084 153.565 130.084C153.853 130.084 154.057 130.186 154.177 130.39C154.309 130.582 154.363 130.834 154.339 131.146C154.315 131.398 154.165 131.704 153.889 132.064C153.625 132.412 153.283 132.796 152.863 133.216C152.443 133.624 151.987 134.05 151.495 134.494C151.015 134.926 150.547 135.352 150.091 135.772C150.835 136.828 151.531 137.752 152.179 138.544C152.839 139.324 153.373 139.972 153.781 140.488C154.189 140.992 154.399 141.364 154.411 141.604C154.435 141.856 154.369 142.054 154.213 142.198C154.069 142.342 153.859 142.414 153.583 142.414C153.427 142.414 153.235 142.36 153.007 142.252C152.779 142.144 152.473 141.922 152.089 141.586C151.717 141.25 151.237 140.746 150.649 140.074C150.073 139.39 149.353 138.472 148.489 137.32C147.997 137.824 147.505 138.328 147.013 138.832C146.533 139.336 146.077 139.804 145.645 140.236C145.225 140.656 144.853 140.998 144.529 141.262C144.217 141.514 143.989 141.64 143.845 141.64ZM169.389 142.504C168.717 142.504 168.135 142.348 167.643 142.036C167.151 141.736 166.773 141.346 166.509 140.866C166.245 140.374 166.113 139.87 166.113 139.354C166.113 138.49 166.245 137.692 166.509 136.96C166.773 136.216 167.121 135.544 167.553 134.944C167.985 134.332 168.453 133.792 168.957 133.324C169.473 132.856 169.971 132.466 170.451 132.154C170.943 131.83 171.381 131.59 171.765 131.434C172.149 131.266 172.431 131.182 172.611 131.182C172.935 131.182 173.163 131.254 173.295 131.398C173.439 131.53 173.511 131.752 173.511 132.064C173.511 132.244 173.379 132.46 173.115 132.712C172.863 132.964 172.527 133.252 172.107 133.576C171.699 133.9 171.267 134.266 170.811 134.674C170.355 135.082 169.917 135.538 169.497 136.042C169.089 136.546 168.753 137.098 168.489 137.698C168.237 138.298 168.111 138.952 168.111 139.66C168.111 139.924 168.159 140.128 168.255 140.272C168.363 140.416 168.537 140.488 168.777 140.488C169.461 140.488 170.193 140.368 170.973 140.128C171.765 139.876 172.551 139.564 173.331 139.192C174.123 138.808 174.867 138.412 175.563 138.004C176.271 137.596 176.877 137.23 177.381 136.906C177.585 136.762 177.759 136.648 177.903 136.564C178.047 136.48 178.149 136.438 178.209 136.438C178.569 136.438 178.749 136.624 178.749 136.996C178.749 137.188 178.605 137.446 178.317 137.77C177.981 138.19 177.525 138.622 176.949 139.066C176.385 139.51 175.755 139.936 175.059 140.344C174.375 140.752 173.673 141.118 172.953 141.442C172.245 141.766 171.579 142.024 170.955 142.216C170.331 142.408 169.809 142.504 169.389 142.504ZM181.342 142.9C180.262 142.9 179.41 142.57 178.786 141.91C178.174 141.238 177.868 140.284 177.868 139.048C177.868 138.376 177.958 137.59 178.138 136.69C178.318 135.778 178.552 134.818 178.84 133.81C179.14 132.79 179.458 131.782 179.794 130.786C180.142 129.79 180.484 128.866 180.82 128.014C181.156 127.162 181.45 126.448 181.702 125.872C181.918 125.428 182.224 125.206 182.62 125.206C182.872 125.206 183.076 125.284 183.232 125.44C183.4 125.596 183.484 125.848 183.484 126.196C183.484 126.364 183.4 126.73 183.232 127.294C183.064 127.858 182.842 128.554 182.566 129.382C182.302 130.198 182.014 131.08 181.702 132.028C181.402 132.976 181.114 133.93 180.838 134.89C180.574 135.85 180.358 136.756 180.19 137.608C180.022 138.448 179.938 139.162 179.938 139.75C179.938 139.99 180.004 140.182 180.136 140.326C180.28 140.47 180.466 140.542 180.694 140.542C181.186 140.542 181.69 140.452 182.206 140.272C182.734 140.092 183.25 139.864 183.754 139.588C184.27 139.312 184.756 139.018 185.212 138.706C185.668 138.394 186.076 138.1 186.436 137.824C186.808 137.536 187.108 137.308 187.336 137.14C187.636 136.912 187.84 136.798 187.948 136.798C188.356 136.798 188.56 136.996 188.56 137.392C188.56 137.488 188.44 137.686 188.2 137.986C187.996 138.25 187.708 138.586 187.336 138.994C186.964 139.402 186.532 139.834 186.04 140.29C185.56 140.734 185.044 141.154 184.492 141.55C183.952 141.946 183.412 142.27 182.872 142.522C182.332 142.774 181.822 142.9 181.342 142.9ZM188.659 142.684C188.275 142.684 187.927 142.576 187.615 142.36C187.303 142.156 187.057 141.886 186.877 141.55C186.697 141.202 186.607 140.83 186.607 140.434C186.607 139.69 186.769 138.964 187.093 138.256C187.429 137.548 187.867 136.876 188.407 136.24C188.947 135.604 189.535 135.022 190.171 134.494C190.819 133.954 191.461 133.492 192.097 133.108C192.745 132.724 193.333 132.424 193.861 132.208C194.401 131.992 194.821 131.884 195.121 131.884C195.469 131.884 195.751 131.962 195.967 132.118C196.195 132.262 196.309 132.49 196.309 132.802C196.309 132.898 196.285 132.976 196.237 133.036C196.393 133.072 196.519 133.162 196.615 133.306C196.711 133.45 196.759 133.666 196.759 133.954C196.759 134.074 196.729 134.386 196.669 134.89C196.609 135.394 196.543 136.006 196.471 136.726C196.411 137.446 196.381 138.196 196.381 138.976C196.381 139.096 196.399 139.204 196.435 139.3C196.471 139.384 196.549 139.426 196.669 139.426C197.149 139.426 197.635 139.33 198.127 139.138C198.631 138.934 199.117 138.688 199.585 138.4C200.065 138.1 200.497 137.806 200.881 137.518C201.277 137.218 201.607 136.972 201.871 136.78C202.147 136.576 202.327 136.474 202.411 136.474C202.819 136.474 203.023 136.678 203.023 137.086C203.023 137.194 202.891 137.422 202.627 137.77C202.375 138.106 202.027 138.496 201.583 138.94C201.139 139.372 200.641 139.804 200.089 140.236C199.549 140.656 198.985 141.004 198.397 141.28C197.821 141.556 197.263 141.694 196.723 141.694C196.063 141.694 195.559 141.538 195.211 141.226C194.875 140.914 194.635 140.494 194.491 139.966C194.359 139.426 194.287 138.82 194.275 138.148C193.663 139.024 193.027 139.804 192.367 140.488C191.719 141.16 191.077 141.694 190.441 142.09C189.805 142.486 189.211 142.684 188.659 142.684ZM195.031 133.666C193.855 134.23 192.799 134.878 191.863 135.61C190.927 136.33 190.183 137.086 189.631 137.878C189.091 138.67 188.821 139.432 188.821 140.164C188.821 140.368 188.917 140.47 189.109 140.47C189.337 140.47 189.637 140.338 190.009 140.074C190.393 139.81 190.807 139.462 191.251 139.03C191.695 138.586 192.139 138.094 192.583 137.554C193.027 137.002 193.441 136.438 193.825 135.862C194.209 135.286 194.515 134.734 194.743 134.206C194.827 134.014 194.923 133.834 195.031 133.666ZM217.701 141.586C217.629 142.234 217.245 142.558 216.549 142.558C216.189 142.558 215.901 142.45 215.685 142.234C215.481 142.018 215.379 141.706 215.379 141.298C215.379 140.602 215.409 139.858 215.469 139.066C215.541 138.262 215.625 137.452 215.721 136.636C215.829 135.82 215.931 135.04 216.027 134.296C215.595 134.92 215.139 135.562 214.659 136.222C214.179 136.882 213.699 137.524 213.219 138.148C212.739 138.772 212.277 139.336 211.833 139.84C211.401 140.332 211.005 140.728 210.645 141.028C210.285 141.316 209.985 141.46 209.745 141.46C209.169 141.46 208.671 141.25 208.251 140.83C207.831 140.398 207.621 139.852 207.621 139.192C207.621 138.964 207.645 138.658 207.693 138.274C207.741 137.878 207.801 137.458 207.873 137.014C207.945 136.57 208.005 136.15 208.053 135.754C208.101 135.358 208.125 135.046 208.125 134.818C208.125 134.818 208.125 134.806 208.125 134.782C208.137 134.722 208.125 134.692 208.089 134.692C208.041 134.692 207.909 134.854 207.693 135.178C207.477 135.49 207.213 135.898 206.901 136.402C206.589 136.906 206.259 137.434 205.911 137.986C205.575 138.538 205.257 139.054 204.957 139.534C204.669 140.014 204.429 140.386 204.237 140.65C203.973 141.058 203.727 141.316 203.499 141.424C203.271 141.532 203.007 141.586 202.707 141.586C202.287 141.586 201.957 141.448 201.717 141.172C201.489 140.884 201.375 140.482 201.375 139.966C201.375 139.75 201.411 139.414 201.483 138.958C201.567 138.502 201.669 137.998 201.789 137.446C201.909 136.882 202.029 136.336 202.149 135.808C202.281 135.268 202.395 134.812 202.491 134.44C202.599 133.948 202.749 133.606 202.941 133.414C203.145 133.21 203.403 133.108 203.715 133.108C204.447 133.108 204.813 133.468 204.813 134.188C204.813 134.32 204.771 134.536 204.687 134.836C204.603 135.136 204.501 135.484 204.381 135.88C204.261 136.276 204.135 136.684 204.003 137.104C203.871 137.512 203.763 137.896 203.679 138.256C203.967 137.752 204.279 137.212 204.615 136.636C204.951 136.06 205.293 135.496 205.641 134.944C206.001 134.392 206.355 133.888 206.703 133.432C207.063 132.976 207.417 132.616 207.765 132.352C208.113 132.076 208.443 131.938 208.755 131.938C209.067 131.938 209.373 132.052 209.673 132.28C209.973 132.496 210.219 132.778 210.411 133.126C210.615 133.462 210.717 133.822 210.717 134.206C210.717 134.566 210.669 134.998 210.573 135.502C210.477 136.006 210.369 136.534 210.249 137.086C210.129 137.638 210.045 138.178 209.997 138.706C210.405 138.25 210.837 137.734 211.293 137.158C211.749 136.57 212.217 135.964 212.697 135.34C213.177 134.716 213.645 134.11 214.101 133.522C214.569 132.934 215.001 132.4 215.397 131.92C215.805 131.44 216.165 131.062 216.477 130.786C216.789 130.498 217.029 130.354 217.197 130.354C217.689 130.354 218.073 130.486 218.349 130.75C218.637 131.002 218.781 131.446 218.781 132.082C218.781 132.478 218.751 132.994 218.691 133.63C218.643 134.266 218.571 134.956 218.475 135.7C218.391 136.432 218.295 137.176 218.187 137.932C218.091 138.676 218.001 139.366 217.917 140.002C217.833 140.638 217.761 141.166 217.701 141.586ZM223.551 142.072C222.795 142.072 222.243 141.844 221.895 141.388C221.559 140.92 221.391 140.326 221.391 139.606C221.391 138.922 221.541 138.262 221.841 137.626C222.141 136.978 222.543 136.36 223.047 135.772C223.551 135.184 224.115 134.638 224.739 134.134C225.363 133.618 225.993 133.156 226.629 132.748C227.277 132.328 227.895 131.974 228.483 131.686C229.071 131.386 229.581 131.158 230.013 131.002C230.445 130.846 230.757 130.768 230.949 130.768C231.153 130.768 231.321 130.822 231.453 130.93C231.597 131.026 231.669 131.218 231.669 131.506C231.669 131.806 231.549 132.076 231.309 132.316C231.069 132.556 230.775 132.76 230.427 132.928C229.935 133.168 229.377 133.462 228.753 133.81C228.141 134.146 227.523 134.53 226.899 134.962C226.275 135.394 225.699 135.856 225.171 136.348C224.655 136.84 224.235 137.356 223.911 137.896C223.587 138.424 223.425 138.964 223.425 139.516C223.425 139.636 223.449 139.732 223.497 139.804C223.545 139.876 223.647 139.912 223.803 139.912C224.007 139.912 224.277 139.816 224.613 139.624C224.949 139.42 225.315 139.156 225.711 138.832C226.107 138.496 226.503 138.13 226.899 137.734C227.295 137.326 227.661 136.918 227.997 136.51C228.345 136.09 228.633 135.7 228.861 135.34C229.029 135.064 229.227 134.836 229.455 134.656C229.695 134.476 229.941 134.386 230.193 134.386C230.397 134.386 230.565 134.446 230.697 134.566C230.841 134.674 230.913 134.872 230.913 135.16C230.913 135.256 230.907 135.484 230.895 135.844C230.883 136.192 230.865 136.618 230.841 137.122C230.829 137.614 230.823 138.13 230.823 138.67C230.823 139.138 230.865 139.546 230.949 139.894C231.045 140.23 231.243 140.398 231.543 140.398C231.903 140.398 232.275 140.272 232.659 140.02C233.043 139.756 233.415 139.426 233.775 139.03C234.147 138.622 234.489 138.19 234.801 137.734C235.113 137.278 235.377 136.846 235.593 136.438C235.821 136.018 235.983 135.682 236.079 135.43C236.235 134.374 236.439 133.546 236.691 132.946C236.943 132.334 237.219 131.902 237.519 131.65C237.831 131.398 238.131 131.272 238.419 131.272C238.743 131.272 239.013 131.35 239.229 131.506C239.457 131.662 239.571 132.028 239.571 132.604C239.571 132.904 239.445 133.354 239.193 133.954C238.941 134.554 238.605 135.214 238.185 135.934C238.089 136.474 238.029 137.032 238.005 137.608C237.981 138.184 238.017 138.724 238.113 139.228C238.437 139 238.767 138.664 239.103 138.22C239.439 137.764 239.775 137.26 240.111 136.708C240.447 136.144 240.783 135.58 241.119 135.016C241.455 134.44 241.785 133.912 242.109 133.432C242.445 132.952 242.769 132.568 243.081 132.28C243.405 131.98 243.723 131.83 244.035 131.83C244.359 131.83 244.653 131.89 244.917 132.01C245.193 132.118 245.421 132.334 245.601 132.658C245.793 132.97 245.937 133.42 246.033 134.008C246.141 134.584 246.195 135.34 246.195 136.276C246.195 136.768 246.243 137.248 246.339 137.716C246.435 138.172 246.597 138.55 246.825 138.85C247.053 139.138 247.371 139.282 247.779 139.282C248.439 139.282 249.027 139.174 249.543 138.958C250.059 138.73 250.509 138.466 250.893 138.166C251.277 137.866 251.595 137.608 251.847 137.392C252.111 137.164 252.315 137.05 252.459 137.05C252.699 137.05 252.879 137.122 252.999 137.266C253.131 137.398 253.197 137.566 253.197 137.77C253.197 137.89 253.095 138.1 252.891 138.4C252.699 138.688 252.429 139.012 252.081 139.372C251.745 139.72 251.349 140.062 250.893 140.398C250.449 140.722 249.975 140.992 249.471 141.208C248.967 141.424 248.457 141.532 247.941 141.532C247.005 141.532 246.231 141.364 245.619 141.028C245.019 140.68 244.569 140.104 244.269 139.3C243.981 138.484 243.837 137.386 243.837 136.006C243.837 135.922 243.837 135.844 243.837 135.772C243.837 135.7 243.837 135.628 243.837 135.556C243.837 135.256 243.831 134.998 243.819 134.782C243.819 134.566 243.789 134.398 243.729 134.278C243.537 134.602 243.303 135.01 243.027 135.502C242.763 135.994 242.469 136.522 242.145 137.086C241.821 137.65 241.473 138.208 241.101 138.76C240.741 139.312 240.375 139.816 240.003 140.272C239.631 140.728 239.259 141.094 238.887 141.37C238.527 141.646 238.185 141.784 237.861 141.784C237.621 141.784 237.357 141.664 237.069 141.424C236.793 141.184 236.559 140.86 236.367 140.452C236.175 140.032 236.079 139.558 236.079 139.03C235.563 139.678 235.029 140.272 234.477 140.812C233.925 141.34 233.379 141.76 232.839 142.072C232.311 142.396 231.807 142.558 231.327 142.558C230.931 142.558 230.547 142.444 230.175 142.216C229.815 141.988 229.503 141.58 229.239 140.992C228.975 140.404 228.807 139.57 228.735 138.49C228.171 139.198 227.583 139.822 226.971 140.362C226.371 140.902 225.777 141.322 225.189 141.622C224.613 141.922 224.067 142.072 223.551 142.072ZM264.118 132.928C264.118 133.072 264.07 133.198 263.974 133.306C263.878 133.414 263.758 133.498 263.614 133.558C263.41 133.642 263.056 133.75 262.552 133.882C262.048 134.014 261.436 134.164 260.716 134.332C260.008 134.5 259.246 134.674 258.43 134.854C257.614 135.022 256.798 135.184 255.982 135.34C255.67 136.492 255.352 137.68 255.028 138.904C254.704 140.116 254.38 141.31 254.056 142.486C253.936 142.906 253.792 143.224 253.624 143.44C253.456 143.668 253.168 143.782 252.76 143.782C252.316 143.782 252.016 143.638 251.86 143.35C251.716 143.074 251.698 142.696 251.806 142.216C252.118 140.908 252.406 139.69 252.67 138.562C252.946 137.434 253.168 136.522 253.336 135.826C252.616 135.946 251.986 136.042 251.446 136.114C250.906 136.174 250.522 136.198 250.294 136.186C250.042 136.162 249.832 136.06 249.664 135.88C249.496 135.7 249.418 135.478 249.43 135.214C249.454 134.974 249.562 134.77 249.754 134.602C249.946 134.422 250.174 134.314 250.438 134.278C250.81 134.242 251.29 134.188 251.878 134.116C252.466 134.044 253.114 133.96 253.822 133.864C253.978 133.252 254.158 132.622 254.362 131.974C254.566 131.314 254.776 130.684 254.992 130.084C255.22 129.472 255.436 128.938 255.64 128.482C255.844 128.026 256.03 127.696 256.198 127.492C256.33 127.336 256.492 127.216 256.684 127.132C256.888 127.048 257.086 127.006 257.278 127.006C257.53 127.006 257.734 127.096 257.89 127.276C258.046 127.456 258.124 127.666 258.124 127.906C258.124 128.002 258.118 128.104 258.106 128.212C258.094 128.308 258.07 128.404 258.034 128.5C257.806 129.1 257.56 129.826 257.296 130.678C257.044 131.53 256.78 132.466 256.504 133.486C257.404 133.354 258.286 133.222 259.15 133.09C260.026 132.946 260.818 132.814 261.526 132.694C262.246 132.562 262.822 132.448 263.254 132.352C263.494 132.268 263.698 132.286 263.866 132.406C264.034 132.514 264.118 132.688 264.118 132.928ZM274.901 133.864C275.213 134.524 275.525 135.22 275.837 135.952C276.149 136.684 276.407 137.398 276.611 138.094C276.827 138.778 276.935 139.396 276.935 139.948C276.935 140.596 276.767 141.136 276.431 141.568C276.107 141.988 275.687 142.318 275.171 142.558C274.655 142.81 274.109 142.984 273.533 143.08C272.957 143.176 272.423 143.224 271.931 143.224C271.571 143.224 271.271 143.146 271.031 142.99C270.803 142.846 270.689 142.606 270.689 142.27C270.689 141.982 270.791 141.778 270.995 141.658C271.199 141.526 271.457 141.436 271.769 141.388C272.009 141.352 272.297 141.304 272.633 141.244C272.981 141.184 273.323 141.094 273.659 140.974C273.995 140.854 274.271 140.704 274.487 140.524C274.715 140.332 274.829 140.092 274.829 139.804C274.829 139.18 274.691 138.544 274.415 137.896C274.139 137.236 273.845 136.564 273.533 135.88C272.945 136.708 272.261 137.53 271.481 138.346C270.713 139.15 269.903 139.882 269.051 140.542C268.211 141.19 267.377 141.706 266.549 142.09C265.733 142.486 264.989 142.684 264.317 142.684C263.357 142.684 262.565 142.366 261.941 141.73C261.329 141.094 261.023 140.11 261.023 138.778C261.023 138.01 261.113 137.248 261.293 136.492C261.473 135.724 261.695 135.028 261.959 134.404C262.235 133.78 262.517 133.282 262.805 132.91C263.093 132.538 263.351 132.352 263.579 132.352C263.819 132.352 264.029 132.424 264.209 132.568C264.401 132.712 264.497 132.958 264.497 133.306C264.497 133.45 264.437 133.72 264.317 134.116C264.209 134.512 264.077 134.98 263.921 135.52C263.777 136.06 263.645 136.624 263.525 137.212C263.417 137.8 263.363 138.346 263.363 138.85C263.363 139.366 263.447 139.768 263.615 140.056C263.795 140.344 264.065 140.488 264.425 140.488C264.905 140.488 265.451 140.344 266.063 140.056C266.675 139.768 267.305 139.384 267.953 138.904C268.613 138.424 269.249 137.89 269.861 137.302C270.485 136.714 271.043 136.108 271.535 135.484C272.039 134.86 272.435 134.272 272.723 133.72C272.651 133.456 272.591 133.192 272.543 132.928C272.507 132.664 272.489 132.394 272.489 132.118C272.489 131.458 272.615 130.918 272.867 130.498C273.119 130.066 273.539 129.85 274.127 129.85C274.655 129.85 275.051 130.024 275.315 130.372C275.579 130.72 275.711 131.176 275.711 131.74C275.711 132.052 275.633 132.388 275.477 132.748C275.333 133.096 275.141 133.468 274.901 133.864ZM264.227 130.642C263.759 130.642 263.399 130.522 263.147 130.282C262.907 130.042 262.787 129.718 262.787 129.31C262.787 128.854 262.949 128.488 263.273 128.212C263.597 127.924 263.969 127.78 264.389 127.78C264.857 127.78 265.229 127.906 265.505 128.158C265.781 128.41 265.919 128.77 265.919 129.238C265.919 129.442 265.841 129.658 265.685 129.886C265.541 130.102 265.343 130.282 265.091 130.426C264.839 130.57 264.551 130.642 264.227 130.642ZM147.128 163.27C146.792 163.27 146.492 163.156 146.228 162.928C145.976 162.7 145.85 162.328 145.85 161.812C145.85 161.536 145.886 161.146 145.958 160.642C146.042 160.138 146.15 159.592 146.282 159.004C146.414 158.404 146.558 157.81 146.714 157.222C146.882 156.634 147.044 156.112 147.2 155.656C147.356 155.188 147.494 154.84 147.614 154.612C147.77 154.336 147.914 154.168 148.046 154.108C148.19 154.036 148.328 154 148.46 154C148.7 154 148.922 154.072 149.126 154.216C149.342 154.36 149.45 154.678 149.45 155.17C149.45 155.362 149.414 155.674 149.342 156.106C149.27 156.526 149.18 157.018 149.072 157.582C148.964 158.146 148.844 158.728 148.712 159.328C148.592 159.928 148.472 160.498 148.352 161.038C148.244 161.566 148.154 162.01 148.082 162.37C148.022 162.67 147.896 162.892 147.704 163.036C147.524 163.192 147.332 163.27 147.128 163.27ZM149.198 152.218C148.802 152.218 148.436 152.104 148.1 151.876C147.764 151.636 147.596 151.27 147.596 150.778C147.596 150.37 147.698 150.04 147.902 149.788C148.106 149.536 148.346 149.356 148.622 149.248C148.91 149.128 149.162 149.068 149.378 149.068C149.594 149.068 149.834 149.116 150.098 149.212C150.362 149.296 150.59 149.458 150.782 149.698C150.986 149.926 151.088 150.256 151.088 150.688C151.088 150.976 150.986 151.24 150.782 151.48C150.578 151.708 150.326 151.888 150.026 152.02C149.738 152.152 149.462 152.218 149.198 152.218ZM153.976 163C153.688 163 153.4 162.904 153.112 162.712C152.836 162.508 152.608 162.22 152.428 161.848C152.248 161.464 152.158 161.002 152.158 160.462C152.158 159.742 152.254 158.974 152.446 158.158C152.65 157.342 152.896 156.526 153.184 155.71C153.472 154.894 153.754 154.126 154.03 153.406C154.162 153.058 154.324 152.824 154.516 152.704C154.708 152.572 154.96 152.506 155.272 152.506C155.98 152.506 156.334 152.86 156.334 153.568C156.334 153.688 156.28 153.922 156.172 154.27C156.064 154.606 155.92 155.02 155.74 155.512C155.572 156.004 155.392 156.538 155.2 157.114C155.02 157.678 154.852 158.254 154.696 158.842C154.552 159.418 154.438 159.964 154.354 160.48C154.63 160.06 154.936 159.538 155.272 158.914C155.62 158.278 155.986 157.612 156.37 156.916C156.766 156.22 157.162 155.572 157.558 154.972C157.954 154.36 158.344 153.862 158.728 153.478C159.112 153.094 159.478 152.902 159.826 152.902C160.126 152.902 160.408 152.962 160.672 153.082C160.948 153.19 161.188 153.406 161.392 153.73C161.596 154.042 161.752 154.492 161.86 155.08C161.98 155.668 162.04 156.442 162.04 157.402C162.04 157.882 162.082 158.35 162.166 158.806C162.262 159.25 162.418 159.622 162.634 159.922C162.85 160.21 163.156 160.354 163.552 160.354C164.236 160.354 164.848 160.228 165.388 159.976C165.928 159.724 166.402 159.43 166.81 159.094C167.218 158.758 167.56 158.464 167.836 158.212C168.004 158.044 168.148 157.912 168.268 157.816C168.4 157.72 168.508 157.672 168.592 157.672C168.844 157.672 169.024 157.738 169.132 157.87C169.252 158.002 169.312 158.182 169.312 158.41C169.312 158.53 169.21 158.752 169.006 159.076C168.802 159.4 168.514 159.772 168.142 160.192C167.782 160.6 167.368 160.996 166.9 161.38C166.432 161.764 165.928 162.082 165.388 162.334C164.848 162.586 164.296 162.712 163.732 162.712C162.784 162.712 161.998 162.544 161.374 162.208C160.762 161.86 160.306 161.284 160.006 160.48C159.706 159.664 159.556 158.554 159.556 157.15C159.556 157.114 159.556 157.054 159.556 156.97C159.556 156.598 159.55 156.268 159.538 155.98C159.538 155.692 159.52 155.458 159.484 155.278C159.28 155.65 159.034 156.094 158.746 156.61C158.47 157.126 158.17 157.678 157.846 158.266C157.522 158.842 157.186 159.412 156.838 159.976C156.49 160.528 156.142 161.032 155.794 161.488C155.458 161.944 155.134 162.31 154.822 162.586C154.51 162.862 154.228 163 153.976 163ZM184.371 153.37C185.031 151.798 185.613 150.178 186.117 148.51C186.213 148.174 186.351 147.916 186.531 147.736C186.723 147.556 186.987 147.466 187.323 147.466C187.599 147.466 187.809 147.55 187.953 147.718C188.097 147.874 188.169 148.09 188.169 148.366C188.169 148.594 188.073 149.002 187.881 149.59C187.689 150.166 187.455 150.898 187.179 151.786C186.903 152.674 186.627 153.7 186.351 154.864C186.075 156.028 185.841 157.306 185.649 158.698C185.457 160.09 185.361 161.578 185.361 163.162C185.361 163.594 185.277 163.948 185.109 164.224C184.953 164.512 184.677 164.656 184.281 164.656C183.849 164.656 183.531 164.506 183.327 164.206C183.135 163.906 183.039 163.522 183.039 163.054C183.039 162.13 183.069 161.362 183.129 160.75C183.201 160.126 183.273 159.592 183.345 159.148C182.757 160.156 182.133 161.026 181.473 161.758C180.825 162.478 180.201 163.03 179.601 163.414C179.001 163.81 178.485 164.008 178.053 164.008C177.345 164.008 176.769 163.81 176.325 163.414C175.881 163.018 175.659 162.418 175.659 161.614C175.659 160.99 175.809 160.348 176.109 159.688C176.409 159.016 176.805 158.356 177.297 157.708C177.789 157.06 178.329 156.454 178.917 155.89C179.517 155.314 180.117 154.81 180.717 154.378C181.317 153.934 181.875 153.586 182.391 153.334C182.907 153.082 183.327 152.956 183.651 152.956C184.011 152.956 184.251 153.094 184.371 153.37ZM183.957 154.342C183.885 154.39 183.807 154.438 183.723 154.486C183.651 154.522 183.579 154.564 183.507 154.612C183.051 154.9 182.565 155.248 182.049 155.656C181.533 156.052 181.023 156.496 180.519 156.988C180.015 157.468 179.553 157.972 179.133 158.5C178.725 159.016 178.395 159.532 178.143 160.048C177.903 160.552 177.783 161.038 177.783 161.506C177.783 161.59 177.819 161.65 177.891 161.686C177.963 161.722 178.029 161.74 178.089 161.74C178.509 161.74 178.959 161.554 179.439 161.182C179.931 160.81 180.429 160.294 180.933 159.634C181.449 158.962 181.959 158.176 182.463 157.276C182.979 156.376 183.477 155.398 183.957 154.342ZM191.894 163.612C191.15 163.612 190.55 163.354 190.094 162.838C189.638 162.31 189.41 161.464 189.41 160.3C189.41 159.556 189.494 158.812 189.662 158.068C189.842 157.312 190.088 156.598 190.4 155.926C190.724 155.242 191.096 154.636 191.516 154.108C191.948 153.58 192.422 153.166 192.938 152.866C193.454 152.554 193.988 152.398 194.54 152.398C195.476 152.398 196.208 152.65 196.736 153.154C197.264 153.658 197.528 154.3 197.528 155.08C197.528 155.68 197.36 156.226 197.024 156.718C196.7 157.198 196.256 157.63 195.692 158.014C195.128 158.398 194.498 158.746 193.802 159.058C193.106 159.37 192.392 159.652 191.66 159.904C191.6 160.336 191.57 160.72 191.57 161.056C191.57 161.26 191.684 161.362 191.912 161.362C192.452 161.362 193.028 161.278 193.64 161.11C194.264 160.93 194.894 160.702 195.53 160.426C196.166 160.138 196.778 159.844 197.366 159.544C197.954 159.232 198.488 158.938 198.968 158.662C199.46 158.374 199.862 158.146 200.174 157.978C200.498 157.798 200.708 157.708 200.804 157.708C201.068 157.708 201.26 157.786 201.38 157.942C201.5 158.098 201.56 158.266 201.56 158.446C201.56 158.53 201.398 158.716 201.074 159.004C200.762 159.292 200.33 159.634 199.778 160.03C199.238 160.414 198.626 160.816 197.942 161.236C197.27 161.644 196.568 162.034 195.836 162.406C195.116 162.766 194.414 163.054 193.73 163.27C193.058 163.498 192.446 163.612 191.894 163.612ZM191.966 158.302C192.458 158.014 192.944 157.714 193.424 157.402C193.916 157.078 194.324 156.718 194.648 156.322C194.972 155.914 195.134 155.44 195.134 154.9C195.134 154.744 195.092 154.642 195.008 154.594C194.924 154.534 194.804 154.504 194.648 154.504C194.228 154.504 193.844 154.69 193.496 155.062C193.16 155.434 192.86 155.914 192.596 156.502C192.344 157.078 192.134 157.678 191.966 158.302ZM202.45 163.918C201.934 163.918 201.568 163.846 201.352 163.702C201.148 163.558 201.046 163.348 201.046 163.072C201.046 162.832 201.13 162.628 201.298 162.46C201.466 162.28 201.838 162.1 202.414 161.92C203.086 161.716 203.722 161.482 204.322 161.218C204.934 160.942 205.432 160.642 205.816 160.318C206.212 159.994 206.41 159.652 206.41 159.292C206.41 159.052 206.326 158.878 206.158 158.77C206.002 158.662 205.816 158.608 205.6 158.608C205.42 158.608 205.156 158.638 204.808 158.698C204.472 158.746 204.1 158.812 203.692 158.896C203.284 158.968 202.888 159.034 202.504 159.094C202.132 159.142 201.814 159.166 201.55 159.166C200.926 159.166 200.464 159.028 200.164 158.752C199.864 158.464 199.714 158.098 199.714 157.654C199.714 157.414 199.84 157.084 200.092 156.664C200.344 156.244 200.68 155.782 201.1 155.278C201.52 154.774 201.988 154.27 202.504 153.766C203.02 153.262 203.542 152.8 204.07 152.38C204.61 151.948 205.12 151.606 205.6 151.354C206.08 151.09 206.488 150.958 206.824 150.958C207.208 150.958 207.514 151.078 207.742 151.318C207.982 151.558 208.102 151.882 208.102 152.29C208.102 152.482 208.084 152.692 208.048 152.92C208.012 153.136 207.922 153.334 207.778 153.514C207.634 153.682 207.412 153.802 207.112 153.874C206.812 153.946 206.404 153.934 205.888 153.838C205.48 154.138 205.054 154.468 204.61 154.828C204.178 155.176 203.77 155.542 203.386 155.926C203.002 156.298 202.684 156.664 202.432 157.024C202.876 156.88 203.38 156.766 203.944 156.682C204.508 156.586 205.078 156.538 205.654 156.538C206.35 156.538 206.914 156.664 207.346 156.916C207.79 157.156 208.114 157.48 208.318 157.888C208.534 158.296 208.642 158.746 208.642 159.238C208.642 159.79 208.462 160.342 208.102 160.894C207.742 161.446 207.262 161.95 206.662 162.406C206.062 162.862 205.396 163.228 204.664 163.504C203.932 163.78 203.194 163.918 202.45 163.918ZM219.458 155.206C219.458 155.986 219.014 156.76 218.126 157.528C217.25 158.284 215.888 158.956 214.04 159.544C214.04 159.556 214.04 159.574 214.04 159.598C214.04 159.994 214.088 160.312 214.184 160.552C214.28 160.78 214.49 160.894 214.814 160.894C215.294 160.894 215.828 160.75 216.416 160.462C217.016 160.162 217.634 159.784 218.27 159.328C218.918 158.86 219.548 158.368 220.16 157.852C220.772 157.336 221.336 156.85 221.852 156.394C222.38 155.926 222.824 155.548 223.184 155.26C223.556 154.96 223.802 154.81 223.922 154.81C224.174 154.81 224.384 154.906 224.552 155.098C224.732 155.29 224.822 155.578 224.822 155.962C224.822 156.178 224.81 156.436 224.786 156.736C225.314 155.824 225.926 155.074 226.622 154.486C227.318 153.886 228.002 153.442 228.674 153.154C229.358 152.854 229.94 152.704 230.42 152.704C230.96 152.704 231.326 152.812 231.518 153.028C231.71 153.232 231.806 153.448 231.806 153.676C231.806 153.808 231.776 153.94 231.716 154.072C231.668 154.192 231.536 154.324 231.32 154.468C231.116 154.612 230.774 154.78 230.294 154.972C229.658 155.212 229.052 155.494 228.476 155.818C227.912 156.142 227.39 156.586 226.91 157.15C226.442 157.702 226.016 158.446 225.632 159.382C225.26 160.306 224.948 161.494 224.696 162.946C224.612 163.354 224.48 163.63 224.3 163.774C224.12 163.93 223.91 164.008 223.67 164.008C223.646 164.008 223.604 164.008 223.544 164.008C223.436 164.02 223.322 164.008 223.202 163.972C223.094 163.948 222.986 163.846 222.878 163.666C222.782 163.498 222.704 163.204 222.644 162.784C222.584 162.364 222.554 161.764 222.554 160.984C222.554 160.516 222.572 160.024 222.608 159.508C222.656 158.98 222.716 158.434 222.788 157.87C222.176 158.47 221.522 159.076 220.826 159.688C220.13 160.3 219.41 160.864 218.666 161.38C217.934 161.884 217.214 162.292 216.506 162.604C215.81 162.916 215.162 163.072 214.562 163.072C213.758 163.072 213.098 162.814 212.582 162.298C212.078 161.77 211.826 160.96 211.826 159.868C211.826 158.788 211.97 157.81 212.258 156.934C212.558 156.046 212.942 155.284 213.41 154.648C213.878 154.012 214.376 153.526 214.904 153.19C215.444 152.842 215.948 152.668 216.416 152.668C217.412 152.668 218.168 152.908 218.684 153.388C219.2 153.856 219.458 154.462 219.458 155.206ZM214.274 157.942C214.586 157.786 214.916 157.606 215.264 157.402C215.624 157.186 215.96 156.964 216.272 156.736C216.584 156.496 216.836 156.262 217.028 156.034C217.232 155.806 217.334 155.59 217.334 155.386C217.334 155.05 217.238 154.846 217.046 154.774C216.866 154.69 216.62 154.648 216.308 154.648C215.984 154.648 215.69 154.822 215.426 155.17C215.162 155.506 214.934 155.926 214.742 156.43C214.55 156.934 214.394 157.438 214.274 157.942ZM243.925 153.928C243.925 154.072 243.877 154.198 243.781 154.306C243.685 154.414 243.565 154.498 243.421 154.558C243.217 154.642 242.863 154.75 242.359 154.882C241.855 155.014 241.243 155.164 240.523 155.332C239.815 155.5 239.053 155.674 238.237 155.854C237.421 156.022 236.605 156.184 235.789 156.34C235.477 157.492 235.159 158.68 234.835 159.904C234.511 161.116 234.187 162.31 233.863 163.486C233.743 163.906 233.599 164.224 233.431 164.44C233.263 164.668 232.975 164.782 232.567 164.782C232.123 164.782 231.823 164.638 231.667 164.35C231.523 164.074 231.505 163.696 231.613 163.216C231.925 161.908 232.213 160.69 232.477 159.562C232.753 158.434 232.975 157.522 233.143 156.826C232.423 156.946 231.793 157.042 231.253 157.114C230.713 157.174 230.329 157.198 230.101 157.186C229.849 157.162 229.639 157.06 229.471 156.88C229.303 156.7 229.225 156.478 229.237 156.214C229.261 155.974 229.369 155.77 229.561 155.602C229.753 155.422 229.981 155.314 230.245 155.278C230.617 155.242 231.097 155.188 231.685 155.116C232.273 155.044 232.921 154.96 233.629 154.864C233.785 154.252 233.965 153.622 234.169 152.974C234.373 152.314 234.583 151.684 234.799 151.084C235.027 150.472 235.243 149.938 235.447 149.482C235.651 149.026 235.837 148.696 236.005 148.492C236.137 148.336 236.299 148.216 236.491 148.132C236.695 148.048 236.893 148.006 237.085 148.006C237.337 148.006 237.541 148.096 237.697 148.276C237.853 148.456 237.931 148.666 237.931 148.906C237.931 149.002 237.925 149.104 237.913 149.212C237.901 149.308 237.877 149.404 237.841 149.5C237.613 150.1 237.367 150.826 237.103 151.678C236.851 152.53 236.587 153.466 236.311 154.486C237.211 154.354 238.093 154.222 238.957 154.09C239.833 153.946 240.625 153.814 241.333 153.694C242.053 153.562 242.629 153.448 243.061 153.352C243.301 153.268 243.505 153.286 243.673 153.406C243.841 153.514 243.925 153.688 243.925 153.928ZM244.515 163.594C243.663 163.594 242.979 163.294 242.463 162.694C241.947 162.082 241.689 161.266 241.689 160.246C241.689 159.922 241.731 159.592 241.815 159.256C241.911 158.92 242.025 158.608 242.157 158.32C242.085 158.212 242.025 158.074 241.977 157.906C241.941 157.726 241.923 157.516 241.923 157.276C241.923 156.496 242.061 155.782 242.337 155.134C242.613 154.474 242.985 153.904 243.453 153.424C243.921 152.944 244.437 152.572 245.001 152.308C245.565 152.044 246.135 151.912 246.711 151.912C247.695 151.912 248.499 152.242 249.123 152.902C249.759 153.562 250.077 154.588 250.077 155.98C250.077 156.676 249.969 157.384 249.753 158.104C249.537 158.824 249.243 159.514 248.871 160.174C248.511 160.822 248.091 161.404 247.611 161.92C247.143 162.436 246.639 162.844 246.099 163.144C245.571 163.444 245.043 163.594 244.515 163.594ZM244.227 157.51C244.287 157.642 244.317 157.798 244.317 157.978C244.317 158.158 244.281 158.344 244.209 158.536C244.137 158.728 244.065 158.986 243.993 159.31C243.921 159.622 243.885 160.072 243.885 160.66C243.885 160.816 243.903 160.948 243.939 161.056C243.987 161.152 244.089 161.2 244.245 161.2C244.653 161.2 245.037 161.068 245.397 160.804C245.769 160.54 246.099 160.192 246.387 159.76C246.687 159.328 246.939 158.848 247.143 158.32C247.359 157.78 247.521 157.234 247.629 156.682C247.749 156.118 247.809 155.596 247.809 155.116C247.809 154.804 247.749 154.588 247.629 154.468C247.509 154.348 247.299 154.288 246.999 154.288C246.591 154.288 246.171 154.42 245.739 154.684C245.319 154.936 244.965 155.284 244.677 155.728C244.389 156.16 244.245 156.652 244.245 157.204C244.245 157.312 244.239 157.414 244.227 157.51Z" fill="white"></path><path d="M355.741 250C355.741 250 315.745 369 197.744 366.5C79.7439 364 38.7414 248 38.7414 248" stroke="white" stroke-width="3"></path><path d="M76.8318 130.853L75.7227 129.83C77.4758 127.929 78.1464 126.495 77.7344 125.529L51.1687 101.034C50.1723 100.701 48.7976 101.486 47.0444 103.387L45.9353 102.364L57.1359 90.2169C61.4538 85.534 66.3535 83.0814 71.8352 82.8591C77.2817 82.6044 82.2935 84.5872 86.8708 88.8077C91.4481 93.0282 93.8979 97.8603 94.2203 103.304C94.5428 108.748 92.6749 113.67 88.6167 118.071L76.8318 130.853ZM55.0151 95.5902L82.5843 121.011L86.821 116.416C87.8599 115.289 88.6199 113.97 89.1009 112.459C89.5792 110.881 89.7623 109.128 89.6503 107.201C89.5382 105.273 88.8427 103.166 87.5637 100.879C86.2847 98.5927 84.4481 96.3455 82.0538 94.1379C77.4766 89.9174 73.0683 87.7745 68.829 87.7091C64.587 87.5761 61.1998 88.8828 58.6675 91.6291L55.0151 95.5902Z" fill="white"></path><path d="M108.479 96.5925L107.682 95.3119C109.877 93.9448 110.905 92.7408 110.764 91.6998L91.663 61.026C90.7907 60.4407 89.2569 60.8317 87.0616 62.1988L86.2641 60.9181L110.84 45.6143L114.523 51.5295L113.243 52.327C111.876 50.1317 110.672 49.1042 109.631 49.2446L97.0075 57.1054L105.742 71.1312L114.279 65.8148C114.864 64.9425 114.473 63.4088 113.106 61.2134L114.387 60.416L120.463 70.173L119.182 70.9705C117.815 68.7752 116.611 67.7477 115.57 67.8882L107.033 73.2046L116.64 88.633L130.544 79.9748C131.282 78.8947 131.399 77.0444 130.896 74.424L132.116 73.6646L134.336 80.4912L108.479 96.5925Z" fill="white"></path><path d="M156.995 72.0664C154.735 72.6968 152.332 72.9942 149.786 72.9584C147.24 72.9226 145.921 72.9176 145.829 72.9434C145.552 73.0206 145.268 73.249 144.976 73.6287C144.684 74.0085 144.59 74.3829 144.693 74.7519L143.101 75.1958L140.419 65.5773L141.941 65.1527C143.22 67.7791 145.147 69.4293 147.722 70.1034C150.33 70.7185 153.064 70.6272 155.924 69.8294C158.369 69.1475 160.221 68.0342 161.481 66.4896C162.741 64.9449 163.062 63.0654 162.444 60.8511C162.161 59.8362 161.673 58.9779 160.98 58.2762C160.333 57.5616 159.452 56.987 158.337 56.5524C157.254 56.0587 156.234 55.697 155.274 55.4673C154.303 55.1915 153.051 54.8941 151.52 54.5753C150.023 54.1974 148.87 53.8974 148.062 53.6752C146.165 53.1107 144.753 52.684 143.827 52.3953C142.888 52.0605 141.648 51.5362 140.107 50.8226C138.612 50.0961 137.426 49.2334 136.551 48.2345C135.676 47.2356 135.052 46.0672 134.678 44.7294C133.919 42.0076 134.476 39.1921 136.35 36.283C138.223 33.3738 140.706 31.4882 143.797 30.6262C145.134 30.253 146.892 30.1358 149.068 30.2745C151.245 30.4132 152.472 30.444 152.748 30.3668C153.302 30.2124 153.45 29.6739 153.193 28.7512L154.784 28.3073L157.928 36.9025L156.405 37.3271C155.562 35.3745 154.078 33.9737 151.952 33.1248C149.813 32.2298 147.336 32.1747 144.522 32.9596C142.4 33.5515 140.886 34.7195 139.98 36.4637C139.108 38.149 138.865 39.6836 139.251 41.0675C139.495 41.944 139.934 42.7165 140.568 43.385C141.189 44.0073 142.028 44.5191 143.085 44.9205C144.141 45.3219 145.133 45.6669 146.058 45.9556C146.971 46.1982 148.17 46.4854 149.655 46.8171C151.186 47.1359 152.355 47.4064 153.163 47.6286C155.376 48.2544 156.975 48.7283 157.96 49.0502C158.944 49.3722 160.243 49.9297 161.857 50.7228C163.516 51.5029 164.773 52.445 165.628 53.5491C166.516 54.5941 167.166 55.8547 167.578 57.3309C168.53 60.7447 167.893 63.8064 165.665 66.5159C163.437 69.2255 160.548 71.0756 156.995 72.0664Z" fill="white"></path><path d="M179.581 65.0254L179.596 63.5168C182.182 63.541 183.695 63.0762 184.135 62.1224L184.472 25.9889C184.05 25.027 182.546 24.534 179.96 24.5098L179.974 23.0013L208.924 23.2719L208.859 30.24L207.35 30.2259C207.375 27.6398 206.91 26.1268 205.956 25.6868L191.086 25.5478L190.932 42.0701L200.989 42.1641C201.95 41.742 202.443 40.2379 202.468 37.6518L203.976 37.6659L203.869 49.1597L202.36 49.1456C202.384 46.5595 201.92 45.0465 200.966 44.6065L190.909 44.5125L190.739 62.687L207.117 62.8401C208.32 62.3245 209.411 60.826 210.392 58.3447L211.829 58.3581L210.04 65.3101L179.581 65.0254Z" fill="white"></path><path d="M218.479 64.567L218.937 63.1296C221.401 63.915 222.984 63.9167 223.685 63.135L234.658 28.7061C234.538 27.6626 233.246 26.7482 230.782 25.9629L231.24 24.5255L246.709 29.4556C252.368 31.2589 256.33 33.6526 258.596 36.6368C260.862 39.621 261.573 42.4364 260.729 45.083C259.93 47.5927 258.471 49.5659 256.355 51.0025C254.253 52.3934 251.58 53.0498 248.338 52.9715L252.25 72.1632C252.401 73.2669 253.754 74.2259 256.309 75.0403L255.851 76.4777L252.908 75.5397C249.714 74.5217 247.696 73.6775 246.854 73.007C246.012 72.3365 245.373 71.0273 244.939 69.0791L241.325 51.7919L234.891 49.7414L229.983 65.1419C230.102 66.1854 231.394 67.0999 233.858 67.8852L233.4 69.3226L218.479 64.567ZM241.108 30.2339L235.633 47.4142L241.314 49.2248C244.964 50.3882 247.699 50.4808 249.519 49.5025C251.339 48.5242 252.787 46.3467 253.863 42.97C254.663 40.4602 254.505 38.2737 253.39 36.4103C252.32 34.5614 249.846 33.0189 245.968 31.7828L241.108 30.2339Z" fill="white"></path><path d="M284.373 43.3284L313.724 64.2828L309.675 69.9542L308.447 69.0776C309.95 66.9728 310.437 65.4667 309.908 64.5593L300.319 57.7136L279.031 87.5322C278.825 88.5623 279.775 89.8286 281.879 91.3313L281.003 92.5591L268.257 83.4594L269.133 82.2316C271.238 83.7343 272.744 84.2211 273.652 83.692L294.94 53.8734L285.351 47.0277C284.321 46.822 283.055 47.7715 281.552 49.8764L280.324 48.9998L284.373 43.3284Z" fill="white"></path><path d="M316.665 94.3693C314.215 96.367 312.131 98.6231 310.412 101.138C308.76 103.659 307.735 106.38 307.336 109.301C307.004 112.229 307.731 114.787 309.517 116.977C311.303 119.167 313.581 120.369 316.35 120.582C319.15 120.832 321.831 120.407 324.394 119.306C327.024 118.211 329.509 116.711 331.847 114.804C334.259 112.836 336.31 110.577 337.999 108.025C339.725 105.444 340.754 102.689 341.085 99.761C341.484 96.84 340.806 94.3032 339.05 92.1506C337.688 90.4804 336.032 89.359 334.082 88.7864C332.162 88.2509 330.157 88.2174 328.067 88.6858C326.044 89.1611 324.065 89.8791 322.13 90.8397C320.194 91.8004 318.372 92.9769 316.665 94.3693ZM311.679 89.1652C316.319 85.3816 321.471 83.5904 327.135 83.7915C332.799 83.9926 337.462 86.3386 341.125 90.8296C344.787 95.3205 346.147 100.36 345.205 105.949C344.263 111.538 341.472 116.224 336.832 120.008C332.193 123.791 327.026 125.564 321.332 125.326C315.705 125.095 311.075 122.752 307.443 118.298C303.75 113.77 302.356 108.727 303.261 103.168C304.197 97.6467 307.003 92.979 311.679 89.1652Z" fill="white"></path></svg>
